<svg version="1.1" id="Layer_1" xmlns="http://www.w3.org/2000/svg" xmlns:xlink="http://www.w3.org/1999/xlink" x="0px" y="0px"
	 width="100%" viewBox="0 0 300 69" enable-background="new 0 0 300 69" xml:space="preserve">
<path fill="#000101" opacity="1.000000" stroke="none" 
	d="
M270.000000,70.000000 
	C261.312439,70.000000 252.624863,70.000000 243.438477,69.753059 
	C242.939651,69.506119 242.820282,69.023102 242.889923,68.573151 
	C242.959579,65.337646 242.959579,62.552094 242.959579,59.536453 
	C241.178650,59.371143 239.886993,59.155197 238.593964,59.146675 
	C229.598022,59.087421 220.599579,59.182251 211.606415,59.003048 
	C205.369400,58.878769 204.048538,57.301483 202.539444,51.366573 
	C201.791565,48.425327 199.986191,45.736698 198.543610,42.994614 
	C197.707138,41.404613 195.840897,39.953033 195.806793,38.408951 
	C195.565399,27.472332 195.678391,16.527891 195.678391,5.046564 
	C209.973404,5.046564 223.747391,5.025765 237.520508,5.124066 
	C238.060699,5.127921 238.592758,6.269828 240.075073,7.961777 
	C225.456589,7.961777 212.112350,7.961777 198.652802,7.961777 
	C198.652802,15.296693 198.652802,21.857302 198.652802,29.273087 
	C206.664917,29.273087 214.283661,29.273087 221.902420,29.273087 
	C221.939850,30.069338 221.977295,30.865589 222.014725,31.661840 
	C214.330124,32.477257 206.455780,31.540335 197.614822,32.279446 
	C198.605103,35.714336 199.408386,38.500683 200.211685,41.287029 
	C200.741150,41.171219 201.270630,41.055405 201.800095,40.939590 
	C202.016342,39.386765 202.232590,37.833935 202.524719,35.736229 
	C210.279984,35.736229 217.869781,35.736229 225.638031,35.736229 
	C225.638031,31.935455 225.638031,28.719902 225.638031,24.908405 
	C217.724869,24.908405 210.154037,24.908405 202.567932,24.908405 
	C202.567932,20.264805 202.567932,16.231630 202.567932,11.577633 
	C216.241013,11.577633 229.471664,11.577633 242.825134,11.577633 
	C242.825134,7.961486 242.825134,4.978055 242.884491,1.748716 
	C242.962570,1.335207 242.981277,1.167603 243.000000,1.000000 
	C244.714355,1.000000 246.428711,1.000000 248.698151,1.437461 
	C249.282837,3.037745 249.328812,4.200420 249.339325,5.363416 
	C249.397903,11.845369 249.394974,11.843559 255.900314,11.838953 
	C260.473419,11.835714 265.046509,11.838327 269.349731,11.838327 
	C269.709290,12.960406 269.891876,13.267552 269.894196,13.576056 
	C269.943115,20.057049 270.222412,26.549696 269.925873,33.015720 
	C269.683533,38.299282 270.753693,42.704544 274.707642,46.524132 
	C277.506256,49.227669 277.796600,62.232700 275.598633,65.740540 
	C275.507416,65.886116 274.981201,65.759140 274.621582,65.759140 
	C271.833649,59.888737 276.933105,52.297638 270.000000,46.042458 
	C270.000000,54.842705 270.000000,62.421352 270.000000,70.000000 
z"/>
<path fill="#000102" opacity="1.000000" stroke="none" 
	d="
M59.000000,70.000000 
	C50.312435,70.000000 41.624874,70.000000 32.444382,69.531937 
	C31.955730,63.564301 32.374065,58.021671 31.808285,52.581383 
	C31.471304,49.341152 30.197685,45.796516 28.240627,43.231438 
	C25.953455,40.233677 24.887375,37.395882 24.969200,33.692799 
	C25.155434,25.264389 25.027935,16.829048 25.027935,7.984079 
	C20.833675,7.984079 17.334427,8.262826 13.903292,7.899087 
	C10.966243,7.587726 7.302555,9.527346 4.445687,5.852725 
	C12.552608,3.901158 45.650906,4.652066 49.337040,7.714767 
	C41.552917,7.714767 35.003632,7.714767 28.085665,7.714767 
	C28.085665,18.103559 27.966391,27.413893 28.202875,36.715179 
	C28.242367,38.268459 29.827522,39.782444 30.698452,41.314587 
	C31.196562,41.140049 31.694674,40.965511 32.192783,40.790977 
	C32.192783,31.240526 32.192783,21.690077 32.192783,11.705566 
	C39.142708,11.705566 45.427444,11.705566 51.945473,11.705566 
	C52.325729,7.845179 52.662865,4.422589 53.000000,1.000000 
	C54.714359,1.000000 56.428715,1.000000 58.582275,1.248247 
	C59.021481,1.496495 59.126892,1.982146 59.057693,2.447462 
	C58.974056,14.208277 58.877254,25.504824 59.021149,36.798306 
	C59.047039,38.830032 59.416565,41.570438 60.732967,42.753086 
	C67.571785,48.897030 65.249146,56.763493 65.304771,64.188782 
	C65.309006,64.754143 64.525345,65.325409 63.891781,66.188301 
	C60.588467,59.948498 65.946861,52.242065 59.000000,46.189236 
	C59.000000,54.858727 59.000000,62.429363 59.000000,70.000000 
z"/>
<path fill="#010407" opacity="1.000000" stroke="none" 
	d="
M99.000000,70.000000 
	C89.645775,70.000000 80.291542,70.000000 70.287308,69.562172 
	C69.581444,63.462784 69.669464,57.794327 69.398529,52.143078 
	C69.291061,49.901466 69.117859,46.891277 67.715508,45.620853 
	C62.441944,40.843445 62.580841,34.892998 62.714588,28.672905 
	C62.881363,20.916286 62.754631,13.153356 62.754631,5.072898 
	C73.846756,5.072898 84.145218,4.850939 94.421753,5.227407 
	C97.023262,5.322710 99.923309,6.859567 102.050179,8.539314 
	C108.686646,13.780640 108.311844,37.092945 101.555626,42.119537 
	C99.260658,43.826981 96.368874,44.732254 93.333504,46.206245 
	C97.309273,52.577232 101.269501,58.923317 105.229729,65.269402 
	C104.805519,65.617935 104.381310,65.966461 103.957092,66.314995 
	C102.889450,65.383636 101.562927,64.626160 100.799927,63.490181 
	C97.830093,59.068649 94.807457,54.653652 92.256981,49.988811 
	C90.323532,46.452518 87.848129,45.012035 83.855507,45.381618 
	C81.372101,45.611507 78.821442,45.114914 76.300972,44.944374 
	C76.334320,44.353508 76.367661,43.762642 76.401009,43.171776 
	C81.959175,42.768890 87.526093,42.459251 93.073158,41.938297 
	C99.281456,41.355247 102.464783,38.451157 103.051773,32.186348 
	C103.483292,27.580799 103.450729,22.870440 103.027580,18.261635 
	C102.496132,12.473225 99.681282,9.028975 93.980019,8.666003 
	C84.754211,8.078645 75.463684,8.507943 65.786011,8.507943 
	C65.786011,18.275885 65.700737,27.894262 65.890129,37.507225 
	C65.914780,38.758560 67.353722,39.982037 68.137581,41.218414 
	C69.299194,39.195656 69.455170,37.585121 69.463379,35.973827 
	C69.497353,29.310728 69.510101,22.647293 69.479767,15.984212 
	C69.468857,13.588955 69.757942,11.736412 72.915100,11.822269 
	C79.074310,11.989766 85.248741,11.752188 91.398750,12.052979 
	C96.087852,12.282318 99.294754,14.560821 99.282913,19.813837 
	C99.274323,23.627340 99.237183,27.440834 99.199196,31.254198 
	C99.153694,35.820881 96.441940,37.847839 92.268257,38.140564 
	C87.458122,38.477932 82.624245,38.806297 77.812317,38.683292 
	C74.034698,38.586727 72.042206,39.191204 72.107750,43.737373 
	C72.168503,47.951122 73.133995,50.268124 77.664314,49.388351 
	C85.024704,47.958984 89.525932,51.197674 92.492958,57.696144 
	C94.416634,61.909439 96.814568,65.906212 99.000000,70.000000 
z"/>
<path fill="#010507" opacity="1.000000" stroke="none" 
	d="
M174.000000,70.000000 
	C164.312439,70.000000 154.624878,70.000000 144.511749,69.532303 
	C144.163620,66.738068 144.323914,64.410805 144.303345,62.085133 
	C144.235397,54.400925 146.010773,46.215927 138.549973,40.467556 
	C138.103256,40.123367 137.839172,39.275532 137.836838,38.660751 
	C137.794861,27.552378 137.806259,16.443802 137.806259,3.799573 
	C140.713928,5.431817 142.941238,6.076154 144.282898,7.534998 
	C152.172562,16.113758 159.705276,25.025234 167.726456,33.475109 
	C169.479218,35.321552 172.996506,36.927807 175.193527,36.425289 
	C176.718719,36.076443 178.108017,31.975674 178.275620,29.465549 
	C178.707367,22.999304 178.389862,16.485104 178.455978,9.990922 
	C178.472656,8.351748 178.805466,6.715794 178.993011,5.078360 
	C179.514023,5.122551 180.035049,5.166742 180.556061,5.210933 
	C180.556061,25.396889 180.556061,45.582844 180.556061,65.768799 
	C179.972748,65.807526 179.389435,65.846252 178.806122,65.884979 
	C178.679855,62.283497 178.737656,58.662689 178.362274,55.087364 
	C178.114304,52.725544 177.938171,49.834835 176.539001,48.200394 
	C167.877869,38.083035 158.974564,28.165586 149.885117,18.430637 
	C148.585724,17.038973 145.597504,16.112537 143.845337,16.600975 
	C142.399292,17.004076 140.870209,19.748535 140.699402,21.578800 
	C140.237030,26.532915 140.285995,31.563086 140.554962,36.540245 
	C140.638031,38.077457 142.080597,39.541203 142.900711,41.038589 
	C143.452866,40.853020 144.005005,40.667454 144.557159,40.481888 
	C144.557159,33.751331 144.557159,27.020779 144.557159,19.608063 
	C146.098068,20.481146 146.940063,20.722225 147.435852,21.274246 
	C156.003235,30.813068 164.547058,40.373341 173.027695,49.989208 
	C173.745270,50.802822 174.371094,52.044846 174.369827,53.087029 
	C174.362991,58.724827 174.145126,64.362373 174.000000,70.000000 
z"/>
<path fill="#1F6C9A" opacity="1.000000" stroke="none" 
	d="
M99.458069,70.000000 
	C96.814568,65.906212 94.416634,61.909439 92.492958,57.696144 
	C89.525932,51.197674 85.024704,47.958984 77.664314,49.388351 
	C73.133995,50.268124 72.168503,47.951122 72.107750,43.737373 
	C72.042206,39.191204 74.034698,38.586727 77.812317,38.683292 
	C82.624245,38.806297 87.458122,38.477932 92.268257,38.140564 
	C96.441940,37.847839 99.153694,35.820881 99.199196,31.254198 
	C99.237183,27.440834 99.274323,23.627340 99.282913,19.813837 
	C99.294754,14.560821 96.087852,12.282318 91.398750,12.052979 
	C85.248741,11.752188 79.074310,11.989766 72.915100,11.822269 
	C69.757942,11.736412 69.468857,13.588955 69.479767,15.984212 
	C69.510101,22.647293 69.497353,29.310728 69.463379,35.973827 
	C69.455170,37.585121 69.299194,39.195656 68.137581,41.218414 
	C67.353722,39.982037 65.914780,38.758560 65.890129,37.507225 
	C65.700737,27.894262 65.786011,18.275885 65.786011,8.507943 
	C75.463684,8.507943 84.754211,8.078645 93.980019,8.666003 
	C99.681282,9.028975 102.496132,12.473225 103.027580,18.261635 
	C103.450729,22.870440 103.483292,27.580799 103.051773,32.186348 
	C102.464783,38.451157 99.281456,41.355247 93.073158,41.938297 
	C87.526093,42.459251 81.959175,42.768890 76.401009,43.171776 
	C76.367661,43.762642 76.334320,44.353508 76.300972,44.944374 
	C78.821442,45.114914 81.372101,45.611507 83.855507,45.381618 
	C87.848129,45.012035 90.323532,46.452518 92.256981,49.988811 
	C94.807457,54.653652 97.830093,59.068649 100.799927,63.490181 
	C101.562927,64.626160 102.889450,65.383636 103.957092,66.314995 
	C104.381310,65.966461 104.805519,65.617935 105.229729,65.269402 
	C101.269501,58.923317 97.309273,52.577232 93.333504,46.206245 
	C96.368874,44.732254 99.260658,43.826981 101.555626,42.119537 
	C108.311844,37.092945 108.686646,13.780640 102.050179,8.539314 
	C99.923309,6.859567 97.023262,5.322710 94.421753,5.227407 
	C84.145218,4.850939 73.846756,5.072898 62.754631,5.072898 
	C62.754631,13.153356 62.881363,20.916286 62.714588,28.672905 
	C62.580841,34.892998 62.441944,40.843445 67.715508,45.620853 
	C69.117859,46.891277 69.291061,49.901466 69.398529,52.143078 
	C69.669464,57.794327 69.581444,63.462784 69.818649,69.562172 
	C66.638710,70.000000 63.277424,70.000000 59.458069,70.000000 
	C59.000000,62.429363 59.000000,54.858727 59.000000,46.189236 
	C65.946861,52.242065 60.588467,59.948498 63.891781,66.188301 
	C64.525345,65.325409 65.309006,64.754143 65.304771,64.188782 
	C65.249146,56.763493 67.571785,48.897030 60.732967,42.753086 
	C59.416565,41.570438 59.047039,38.830032 59.021149,36.798306 
	C58.877254,25.504824 58.974056,14.208277 59.210255,2.290132 
	C59.629578,1.452000 59.818905,1.229504 60.000000,1.000000 
	C73.020897,1.000000 86.041786,1.000000 99.231445,1.274862 
	C102.680954,5.123744 108.030762,8.301664 108.806763,12.355190 
	C110.366974,20.505123 110.405289,29.284117 109.123512,37.499588 
	C108.471306,41.679905 103.593529,45.200951 100.113373,49.679577 
	C102.294067,53.158615 105.327621,57.513115 107.809631,62.162079 
	C109.057030,64.498550 109.301811,67.370308 110.000000,70.000000 
	C106.638710,70.000000 103.277428,70.000000 99.458069,70.000000 
z"/>
<path fill="#000101" opacity="1.000000" stroke="none" 
	d="
M301.000000,12.000000 
	C301.000000,31.224047 301.000000,50.448093 301.000000,70.000000 
	C294.649780,70.000000 288.293945,70.000000 281.364197,69.541672 
	C280.770477,63.587181 281.084137,58.061279 280.597565,52.606762 
	C280.333160,49.642628 279.420776,46.165897 277.535095,44.046227 
	C274.462250,40.592079 273.699127,37.021481 273.811829,32.684937 
	C274.022064,24.593437 273.872223,16.492584 273.872223,7.329000 
	C266.628998,7.329000 260.158325,7.329000 253.687653,7.329000 
	C254.147598,5.667096 254.655441,5.100257 255.166306,5.097520 
	C268.488190,5.026155 281.810516,4.986926 295.132080,5.065385 
	C295.826447,5.069475 296.514404,6.161689 297.205383,6.747317 
	C297.056915,7.190588 296.908447,7.633859 296.759979,8.077130 
	C290.212433,8.077130 283.664917,8.077130 276.839844,8.077130 
	C276.839844,17.979622 276.740234,27.131071 276.932861,36.276367 
	C276.967010,37.897850 278.217896,39.493706 278.906921,41.101391 
	C279.509338,40.978725 280.111755,40.856056 280.714172,40.733387 
	C280.714172,31.242456 280.714172,21.751528 280.714172,12.000000 
	C288.072632,12.000000 294.536316,12.000000 301.000000,12.000000 
z"/>
<path fill="#1F6C9A" opacity="1.000000" stroke="none" 
	d="
M174.458069,70.000000 
	C174.145126,64.362373 174.362991,58.724827 174.369827,53.087029 
	C174.371094,52.044846 173.745270,50.802822 173.027695,49.989208 
	C164.547058,40.373341 156.003235,30.813068 147.435852,21.274246 
	C146.940063,20.722225 146.098068,20.481146 144.557159,19.608063 
	C144.557159,27.020779 144.557159,33.751331 144.557159,40.481888 
	C144.005005,40.667454 143.452866,40.853020 142.900711,41.038589 
	C142.080597,39.541203 140.638031,38.077457 140.554962,36.540245 
	C140.285995,31.563086 140.237030,26.532915 140.699402,21.578800 
	C140.870209,19.748535 142.399292,17.004076 143.845337,16.600975 
	C145.597504,16.112537 148.585724,17.038973 149.885117,18.430637 
	C158.974564,28.165586 167.877869,38.083035 176.539001,48.200394 
	C177.938171,49.834835 178.114304,52.725544 178.362274,55.087364 
	C178.737656,58.662689 178.679855,62.283497 178.806122,65.884979 
	C179.389435,65.846252 179.972748,65.807526 180.556061,65.768799 
	C180.556061,45.582844 180.556061,25.396889 180.556061,5.210933 
	C180.035049,5.166742 179.514023,5.122551 178.993011,5.078360 
	C178.805466,6.715794 178.472656,8.351748 178.455978,9.990922 
	C178.389862,16.485104 178.707367,22.999304 178.275620,29.465549 
	C178.108017,31.975674 176.718719,36.076443 175.193527,36.425289 
	C172.996506,36.927807 169.479218,35.321552 167.726456,33.475109 
	C159.705276,25.025234 152.172562,16.113758 144.282898,7.534998 
	C142.941238,6.076154 140.713928,5.431817 137.806259,3.799573 
	C137.806259,16.443802 137.794861,27.552378 137.836838,38.660751 
	C137.839172,39.275532 138.103256,40.123367 138.549973,40.467556 
	C146.010773,46.215927 144.235397,54.400925 144.303345,62.085133 
	C144.323914,64.410805 144.163620,66.738068 144.043091,69.532303 
	C140.969406,70.000000 137.938812,70.000000 134.385437,69.535683 
	C133.862640,61.889671 133.862640,54.707977 133.862640,46.168072 
	C140.741318,52.461620 135.246567,60.234375 138.958527,66.129356 
	C141.929352,59.749634 140.576721,49.245476 136.906570,44.424206 
	C135.396118,42.439995 133.992981,39.765621 133.946533,37.377834 
	C133.710724,25.256823 133.936157,13.126840 134.000000,1.000000 
	C137.361282,1.000000 140.722580,1.000000 144.456406,1.346421 
	C154.115906,12.282641 163.402863,22.872442 172.689819,33.462242 
	C173.126541,33.172844 173.563278,32.883442 174.000000,32.594044 
	C174.000000,22.062696 174.000000,11.531348 174.000000,1.000000 
	C177.361282,1.000000 180.722580,1.000000 184.421539,1.455597 
	C184.839462,24.607462 184.919724,47.303730 185.000000,70.000000 
	C181.638718,70.000000 178.277420,70.000000 174.458069,70.000000 
z"/>
<path fill="#1F6D9B" opacity="1.000000" stroke="none" 
	d="
M242.825134,1.994623 
	C242.825134,4.978055 242.825134,7.961486 242.825134,11.577633 
	C229.471664,11.577633 216.241013,11.577633 202.567932,11.577633 
	C202.567932,16.231630 202.567932,20.264805 202.567932,24.908405 
	C210.154037,24.908405 217.724869,24.908405 225.638031,24.908405 
	C225.638031,28.719902 225.638031,31.935455 225.638031,35.736229 
	C217.869781,35.736229 210.279984,35.736229 202.524719,35.736229 
	C202.232590,37.833935 202.016342,39.386765 201.800095,40.939590 
	C201.270630,41.055405 200.741150,41.171219 200.211685,41.287029 
	C199.408386,38.500683 198.605103,35.714336 197.614822,32.279446 
	C206.455780,31.540335 214.330124,32.477257 222.014725,31.661840 
	C221.977295,30.865589 221.939850,30.069338 221.902420,29.273087 
	C214.283661,29.273087 206.664917,29.273087 198.652802,29.273087 
	C198.652802,21.857302 198.652802,15.296693 198.652802,7.961777 
	C212.112350,7.961777 225.456589,7.961777 240.075073,7.961777 
	C238.592758,6.269828 238.060699,5.127921 237.520508,5.124066 
	C223.747391,5.025765 209.973404,5.046564 195.678391,5.046564 
	C195.678391,16.527891 195.565399,27.472332 195.806793,38.408951 
	C195.840897,39.953033 197.707138,41.404613 198.543610,42.994614 
	C199.986191,45.736698 201.791565,48.425327 202.539444,51.366573 
	C204.048538,57.301483 205.369400,58.878769 211.606415,59.003048 
	C220.599579,59.182251 229.598022,59.087421 238.593964,59.146675 
	C239.886993,59.155197 241.178650,59.371143 242.959579,59.536453 
	C242.959579,62.552094 242.959579,65.337646 242.744720,68.728699 
	C242.341995,69.547203 242.165375,69.769127 242.000000,70.000000 
	C225.645767,70.000000 209.291550,70.000000 192.352692,69.543381 
	C191.768051,61.917519 191.768051,54.748276 191.768051,47.579029 
	C192.304352,47.540932 192.840652,47.502834 193.376953,47.464741 
	C197.844376,52.812263 193.767883,59.853775 196.331207,66.035774 
	C209.806824,66.035774 223.436096,66.061111 237.064499,65.965538 
	C237.792999,65.960426 238.514359,64.936943 239.239059,64.387527 
	C237.070999,63.140247 235.321014,63.001678 233.570038,62.987831 
	C226.077789,62.928558 218.563705,63.223949 211.103119,62.718235 
	C207.992111,62.507359 203.587082,61.509041 202.209488,59.328125 
	C198.064377,52.765858 193.097321,45.704189 192.159561,38.363544 
	C190.593231,26.102327 191.901703,13.473866 192.000000,1.000000 
	C208.354233,1.000000 224.708450,1.000000 241.660828,1.172332 
	C242.436630,1.570970 242.625336,1.787623 242.825134,1.994623 
z"/>
<path fill="#000000" opacity="1.000000" stroke="none" 
	d="
M21.000000,70.000000 
	C14.370952,70.000000 7.741904,70.000000 1.000000,70.000000 
	C1.000000,50.979237 1.000000,31.958275 1.466008,12.416821 
	C8.174729,11.896326 14.417444,11.896326 21.161015,11.896326 
	C21.161015,20.199781 20.998032,27.810156 21.252874,35.406509 
	C21.337603,37.932114 21.683632,41.341324 23.301920,42.768539 
	C30.283581,48.925869 27.607178,56.818848 27.906347,64.172897 
	C27.932438,64.814232 26.792265,65.503029 25.943314,66.448860 
	C23.270115,59.763828 27.713772,52.414577 22.690424,47.075424 
	C22.126949,47.140285 21.563475,47.205143 21.000000,47.270004 
	C21.000000,54.846672 21.000000,62.423336 21.000000,70.000000 
z"/>
<path fill="#1F6B99" opacity="1.000000" stroke="none" 
	d="
M21.458069,70.000000 
	C21.000000,62.423336 21.000000,54.846672 21.000000,47.270004 
	C21.563475,47.205143 22.126949,47.140285 22.690424,47.075424 
	C27.713772,52.414577 23.270115,59.763828 25.943314,66.448860 
	C26.792265,65.503029 27.932438,64.814232 27.906347,64.172897 
	C27.607178,56.818848 30.283581,48.925869 23.301920,42.768539 
	C21.683632,41.341324 21.337603,37.932114 21.252874,35.406509 
	C20.998032,27.810156 21.161015,20.199781 21.161015,11.896326 
	C14.417444,11.896326 8.174729,11.896326 1.466008,11.948163 
	C1.000000,8.358989 1.000000,4.717978 1.000000,1.000000 
	C18.020828,1.000000 35.041756,1.000000 52.531342,1.000000 
	C52.662865,4.422589 52.325729,7.845179 51.945473,11.705566 
	C45.427444,11.705566 39.142708,11.705566 32.192783,11.705566 
	C32.192783,21.690077 32.192783,31.240526 32.192783,40.790977 
	C31.694674,40.965511 31.196562,41.140049 30.698452,41.314587 
	C29.827522,39.782444 28.242367,38.268459 28.202875,36.715179 
	C27.966391,27.413893 28.085665,18.103559 28.085665,7.714767 
	C35.003632,7.714767 41.552917,7.714767 49.337040,7.714767 
	C45.650906,4.652066 12.552608,3.901158 4.445687,5.852725 
	C7.302555,9.527346 10.966243,7.587726 13.903292,7.899087 
	C17.334427,8.262826 20.833675,7.984079 25.027935,7.984079 
	C25.027935,16.829048 25.155434,25.264389 24.969200,33.692799 
	C24.887375,37.395882 25.953455,40.233677 28.240627,43.231438 
	C30.197685,45.796516 31.471304,49.341152 31.808285,52.581383 
	C32.374065,58.021671 31.955730,63.564301 31.975729,69.531937 
	C28.638712,70.000000 25.277426,70.000000 21.458069,70.000000 
z"/>
<path fill="#1F6D9B" opacity="1.000000" stroke="none" 
	d="
M301.000000,11.517044 
	C294.536316,12.000000 288.072632,12.000000 280.714172,12.000000 
	C280.714172,21.751528 280.714172,31.242456 280.714172,40.733387 
	C280.111755,40.856056 279.509338,40.978725 278.906921,41.101391 
	C278.217896,39.493706 276.967010,37.897850 276.932861,36.276367 
	C276.740234,27.131071 276.839844,17.979622 276.839844,8.077130 
	C283.664917,8.077130 290.212433,8.077130 296.759979,8.077130 
	C296.908447,7.633859 297.056915,7.190588 297.205383,6.747317 
	C296.514404,6.161689 295.826447,5.069475 295.132080,5.065385 
	C281.810516,4.986926 268.488190,5.026155 255.166306,5.097520 
	C254.655441,5.100257 254.147598,5.667096 253.687653,7.329000 
	C260.158325,7.329000 266.628998,7.329000 273.872223,7.329000 
	C273.872223,16.492584 274.022064,24.593437 273.811829,32.684937 
	C273.699127,37.021481 274.462250,40.592079 277.535095,44.046227 
	C279.420776,46.165897 280.333160,49.642628 280.597565,52.606762 
	C281.084137,58.061279 280.770477,63.587181 280.895142,69.541672 
	C277.638702,70.000000 274.277435,70.000000 270.458069,70.000000 
	C270.000000,62.421352 270.000000,54.842705 270.000000,46.042458 
	C276.933105,52.297638 271.833649,59.888737 274.621582,65.759140 
	C274.981201,65.759140 275.507416,65.886116 275.598633,65.740540 
	C277.796600,62.232700 277.506256,49.227669 274.707642,46.524132 
	C270.753693,42.704544 269.683533,38.299282 269.925873,33.015720 
	C270.222412,26.549696 269.943115,20.057049 269.894196,13.576056 
	C269.891876,13.267552 269.709290,12.960406 269.349731,11.838327 
	C265.046509,11.838327 260.473419,11.835714 255.900314,11.838953 
	C249.394974,11.843559 249.397903,11.845369 249.339325,5.363416 
	C249.328812,4.200420 249.282837,3.037745 249.126617,1.437461 
	C266.333405,1.000000 283.666809,1.000000 301.000000,1.000000 
	C301.000000,4.417117 301.000000,7.725603 301.000000,11.517044 
z"/>
<path fill="#010508" opacity="1.000000" stroke="none" 
	d="
M110.437500,70.000000 
	C109.301811,67.370308 109.057030,64.498550 107.809631,62.162079 
	C105.327621,57.513115 102.294067,53.158615 100.113373,49.679577 
	C103.593529,45.200951 108.471306,41.679905 109.123512,37.499588 
	C110.405289,29.284117 110.366974,20.505123 108.806763,12.355190 
	C108.030762,8.301664 102.680954,5.123744 99.700104,1.274862 
	C105.354927,1.000000 110.709862,1.000000 116.443146,1.461460 
	C116.786186,13.560375 116.642242,25.199427 116.813194,36.833851 
	C116.844894,38.991257 117.523911,41.774281 118.967117,43.167385 
	C125.712387,49.678490 123.086617,57.581253 122.797966,65.156555 
	C122.789688,65.373718 122.046227,65.562859 121.492081,65.842537 
	C118.713013,59.981560 123.428467,52.457840 117.000000,46.161972 
	C117.000000,55.092194 117.000000,62.546097 117.000000,70.000000 
	C114.958336,70.000000 112.916664,70.000000 110.437500,70.000000 
z"/>
<path fill="#010609" opacity="1.000000" stroke="none" 
	d="
M191.562500,1.000000 
	C191.901703,13.473866 190.593231,26.102327 192.159561,38.363544 
	C193.097321,45.704189 198.064377,52.765858 202.209488,59.328125 
	C203.587082,61.509041 207.992111,62.507359 211.103119,62.718235 
	C218.563705,63.223949 226.077789,62.928558 233.570038,62.987831 
	C235.321014,63.001678 237.070999,63.140247 239.239059,64.387527 
	C238.514359,64.936943 237.792999,65.960426 237.064499,65.965538 
	C223.436096,66.061111 209.806824,66.035774 196.331207,66.035774 
	C193.767883,59.853775 197.844376,52.812263 193.376953,47.464741 
	C192.840652,47.502834 192.304352,47.540932 191.768051,47.579029 
	C191.768051,54.748276 191.768051,61.917519 191.884033,69.543381 
	C189.958328,70.000000 187.916672,70.000000 185.437500,70.000000 
	C184.919724,47.303730 184.839462,24.607462 184.879608,1.455597 
	C187.041672,1.000000 189.083328,1.000000 191.562500,1.000000 
z"/>
<path fill="#01080C" opacity="1.000000" stroke="none" 
	d="
M133.562500,1.000000 
	C133.936157,13.126840 133.710724,25.256823 133.946533,37.377834 
	C133.992981,39.765621 135.396118,42.439995 136.906570,44.424206 
	C140.576721,49.245476 141.929352,59.749634 138.958527,66.129356 
	C135.246567,60.234375 140.741318,52.461620 133.862640,46.168072 
	C133.862640,54.707977 133.862640,61.889671 133.931320,69.535683 
	C131.958328,70.000000 129.916672,70.000000 127.458939,69.531128 
	C127.116402,64.243149 127.010338,59.412720 127.313309,54.608089 
	C127.624435,49.674103 126.424782,45.562481 122.881599,41.915710 
	C121.556747,40.552124 120.781403,38.115406 120.732536,36.143776 
	C120.510063,27.167551 120.598633,18.182388 120.674965,9.201285 
	C120.686577,7.835263 121.221542,6.473687 121.514442,5.110055 
	C122.012405,5.175032 122.510376,5.240008 123.008339,5.304985 
	C123.124184,7.066526 123.331818,8.827632 123.340164,10.589683 
	C123.378792,18.739628 123.221001,26.894089 123.466766,35.036877 
	C123.526306,37.009293 124.851738,38.943497 125.595062,40.895275 
	C126.063377,40.711067 126.531685,40.526863 127.000000,40.342655 
	C127.000000,27.228437 127.000000,14.114219 127.000000,1.000000 
	C129.041672,1.000000 131.083328,1.000000 133.562500,1.000000 
z"/>
<path fill="#1E6996" opacity="1.000000" stroke="none" 
	d="
M126.545891,1.000000 
	C127.000000,14.114219 127.000000,27.228437 127.000000,40.342655 
	C126.531685,40.526863 126.063377,40.711067 125.595062,40.895275 
	C124.851738,38.943497 123.526306,37.009293 123.466766,35.036877 
	C123.221001,26.894089 123.378792,18.739628 123.340164,10.589683 
	C123.331818,8.827632 123.124184,7.066526 123.008339,5.304985 
	C122.510376,5.240008 122.012405,5.175032 121.514442,5.110055 
	C121.221542,6.473687 120.686577,7.835263 120.674965,9.201285 
	C120.598633,18.182388 120.510063,27.167551 120.732536,36.143776 
	C120.781403,38.115406 121.556747,40.552124 122.881599,41.915710 
	C126.424782,45.562481 127.624435,49.674103 127.313309,54.608089 
	C127.010338,59.412720 127.116402,64.243149 127.021439,69.531128 
	C123.969406,70.000000 120.938812,70.000000 117.454109,70.000000 
	C117.000000,62.546097 117.000000,55.092194 117.000000,46.161972 
	C123.428467,52.457840 118.713013,59.981560 121.492081,65.842537 
	C122.046227,65.562859 122.789688,65.373718 122.797966,65.156555 
	C123.086617,57.581253 125.712387,49.678490 118.967117,43.167385 
	C117.523911,41.774281 116.844894,38.991257 116.813194,36.833851 
	C116.642242,25.199427 116.786186,13.560375 116.910751,1.461460 
	C120.030594,1.000000 123.061188,1.000000 126.545891,1.000000 
z"/>
<path fill="#010407" opacity="1.000000" stroke="none" 
	d="
M173.531342,1.000000 
	C174.000000,11.531348 174.000000,22.062696 174.000000,32.594044 
	C173.563278,32.883442 173.126541,33.172844 172.689819,33.462242 
	C163.402863,22.872442 154.115906,12.282641 144.914474,1.346421 
	C154.354233,1.000000 163.708450,1.000000 173.531342,1.000000 
z"/>
<path fill="#1D6692" opacity="1.000000" stroke="none" 
	d="
M242.884491,1.748716 
	C242.625336,1.787623 242.436630,1.570970 242.129486,1.172332 
	C242.000000,1.000000 242.500000,1.000000 242.750000,1.000000 
	C242.981277,1.167603 242.962570,1.335207 242.884491,1.748716 
z"/>
<path fill="#1D6692" opacity="1.000000" stroke="none" 
	d="
M59.750000,1.000000 
	C59.818905,1.229504 59.629578,1.452000 59.279453,1.824816 
	C59.126892,1.982146 59.021481,1.496495 59.010742,1.248247 
	C59.000000,1.000000 59.500000,1.000000 59.750000,1.000000 
z"/>
<path fill="#1D6692" opacity="1.000000" stroke="none" 
	d="
M242.250000,70.000000 
	C242.165375,69.769127 242.341995,69.547203 242.675079,69.178658 
	C242.820282,69.023102 242.939651,69.506119 242.969818,69.753059 
	C243.000000,70.000000 242.500000,70.000000 242.250000,70.000000 
z"/>
</svg>